<svg xmlns="http://www.w3.org/2000/svg" viewBox="0 0 128 128">
<!-- SVG created with Arrow, by QuiverAI (https://quiver.ai) -->
  <style type="text/css">.cls-0 {fill:#D2DFFD;}
.cls-1 {fill:#B4BDFF;}
.cls-2 {fill:#A4ABFF;}
.cls-3 {fill:#E6F2FF;}
.cls-4 {fill:#E6F1FF;}
.cls-5 {fill:#B2C0FF;}
.cls-6 {fill:#A6ADFF;}
.cls-7 {fill:#FFFFFF;}
.cls-8 {fill:#E7F3FF;}</style>
  <path class="cls-0" d="m60.7 1.4-30.8 30.1c-0.6 0.6-1.2 1.5-1.2 2.5l-0.1 60.2c0 0.8 0.4 1.7 1 2.4l31.1 30.2c1.8 1.8 4.7 1.8 6.4 0l31.2-30.2c0.6-0.6 1.2-1.5 1.2-2.5l-0.2-60.5c0-0.8-0.4-1.5-0.9-2.1l-31.7-30.1c-1.6-1.8-4.4-1.8-6 0z"/>
  <path class="cls-1" d="m63.9 0c1 0 2 0.4 2.8 1.1l31.7 30.5c0.6 0.5 0.9 1.3 0.9 2l0.1 60.5c0 0.5-0.1 1-0.3 1.5l-15.6-6.7v-50.4l-19.6-18.7v-19.8z"/>
  <path class="cls-2" d="m83.9 38.5 15.2-5.8c-0.2-0.4-0.4-0.8-0.7-1.1l-13.4-13.2c1.5 1.3 2.2 3.2 2.2 5.6 0 4.1-3.2 7.7-7.9 7.7-1.8 0-3.5-0.7-4.8-1.6l9.1 8.4h0.3z"/>
  <path class="cls-0" d="m63.9 0c-1.1 0-2.3 0.4-3.2 1.4l-31 30.2c-0.4 0.3-0.7 0.8-0.8 1.2l15.6 5.7 19.4-18.7v-19.8z"/>
  <path class="cls-1" d="m36.5 35.6v27.3c0 2.1-1.7 3.9-4 3.9-1.7 0-3.2-1.2-3.8-2.7l-0.1 30.1c0 0.6 0.1 1.2 0.4 1.7l15.5-7v-50.4l-8-2.9z"/>
  <path class="cls-3" d="m28.7 56.6c0.6 1.5 2.1 2.6 3.8 2.6 2.1 0 4-1.7 4-3.8v-19.8l-7.6-2.8c-0.2 0.4-0.2 0.8-0.2 1.3v22.5z"/>
  <path class="cls-4" d="m44.5 38.5v50.4l19.4 19.6 19.6-19.6 0.1-50.4-19.7-18.7z"/>
  <path class="cls-3" d="m63.9 19.8 3.9 6.9 15.8 11.8v19.8l-7.9 7.7v3.1l0.1 7.6 7.7-7.6v19.8l-19.6 19.6 11.8-19.6v-50.4z"/>
  <path class="cls-0" d="m75.7 66v10.7l7.8-7.6 0.1-10.8z"/>
  <path class="cls-2" d="m95.6 61.3c-1.9 0.1-4.1 1.6-4.1 3.9v27.2l7.5 3.2c0.3-0.4 0.4-1 0.4-1.5l-0.1-29.5c-0.3-1.8-1.9-3.3-3.7-3.3z"/>
  <path class="cls-7" d="m69.3 25.3-1.5 1.4-23.3 23.6v24.7l12.8-12.5c2.5-2.4 6.5-0.9 6.5 2.5l0.1 3.4c0 3.2 4 5.1 6.5 2.7l5.3-4.9v-27.7l-7.9-11.8 1.5-1.4z"/>
  <path class="cls-7" d="m54.2 99 9.7 9.5 11.8-19.6v-12.3z"/>
  <path class="cls-8" d="m42.7 108.5-0.9-1.5c-0.6-1-0.8-2.1-0.8-3.1 0-4 3.4-7.3 7.5-7.3 2 0 3.9 0.8 5.7 2.4l-0.5-0.4-9.2-9.7-15.5 6.5c0.1 0.4 0.3 0.8 0.7 1.2l13 11.9z"/>
  <path class="cls-8" d="m42.7 108.5 18 18.3c0.9 0.8 2.1 1.2 3.2 1.2v-19.5l-9.7-9.5c-1.3-1.4-3.2-2.4-5.6-2.4-4.1 0-7.9 3.3-7.9 7.4 0 1.9 0.7 3.5 2 4.5z"/>
  <path class="cls-1" d="m63.9 0v19.8l10.3 9.8c1.3 1.2 3.1 2.1 5.1 2.1 4.2 0 7.9-3.2 7.9-7.6 0-2-0.7-3.9-2-5.2l-18.5-17.8c-0.8-0.7-1.8-1.1-2.8-1.1z"/>
</svg>